<?xml version="1.0" encoding="UTF-8"?>
<!DOCTYPE svg PUBLIC "-//W3C//DTD SVG 1.1//EN" "http://www.w3.org/Graphics/SVG/1.1/DTD/svg11.dtd">
<!-- Creator: CorelDRAW 2020 (64-Bit) -->
<svg xmlns="http://www.w3.org/2000/svg" xml:space="preserve" width="2833px" height="2829px" version="1.1" style="shape-rendering:geometricPrecision; text-rendering:geometricPrecision; image-rendering:optimizeQuality; fill-rule:evenodd; clip-rule:evenodd"
viewBox="0 0 745.42 744.29"
 xmlns:xlink="http://www.w3.org/1999/xlink"
 xmlns:xodm="http://www.corel.com/coreldraw/odm/2003">
 <defs>
  <style type="text/css">
   <![CDATA[
    .fil3 {fill:#FEFEFE}
    .fil1 {fill:#00C85A}
    .fil2 {fill:#F7B909}
    .fil0 {fill:red}
    .fil4 {fill:red;fill-rule:nonzero}
   ]]>
  </style>
 </defs>
 <g id="Слой_x0020_1">
  <metadata id="CorelCorpID_0Corel-Layer"/>
  <g id="_2355645698432">
   <path class="fil0" d="M250.81 280.2c84.64,-104.3 238.15,-74.19 275.94,49.24 20.44,66.74 47.65,84.95 32.14,170.14 -21.66,118.98 -132.94,192.35 -137.34,221.7 -8.09,53.95 148.62,-32.34 166.74,-45.19 286.71,-203.34 160.7,-664.74 -213.09,-676.09 -7.23,51.89 -213.97,140.34 -172.67,324.09 3.88,17.3 9.44,31.9 17.45,47.46 1.7,-37.99 9.61,-59.98 30.83,-91.35l0 0z"/>
   <path class="fil1" d="M223.35 405.77c-6.75,-32.36 -31.86,-45.42 -35.15,-111.65 -8.05,-162.24 170.22,-260.52 149.01,-287.14 -16.11,-20.2 -135.05,33.51 -157.11,46.92 -66.59,40.46 -22.05,8.4 -31.87,74.68 -14.83,100.11 -37.15,190.21 32.86,280.82 19.51,25.24 41.32,42.46 69.29,56.91 -13.73,-19.64 -22,-36.95 -27.03,-60.54l0 0z"/>
   <path class="fil2" d="M498.45 471.94c-59.66,67.45 -152.09,79.36 -222.17,21.8 -29.14,-23.92 -53.52,-20.85 -93.71,-66.82 -107.43,-122.86 -31.31,-295.91 -63,-313.25 -28.33,-15.5 -88.43,110.04 -95.44,128.9 -92.44,248.53 91.99,503.33 360.88,501.71 -3.83,-31.67 64.55,-78.71 91.19,-107.68 66.84,-72.65 100.49,-168.74 57.07,-262.03 -1.72,40.8 -10.7,64.65 -34.82,97.37l0 0z"/>
  </g>
  <rect class="fil3" x="0.35" y="251.29" width="744.72" height="241.72"/>
  <polygon class="fil4" points="19.92,449.82 19.92,307.52 50.1,307.52 50.1,318.87 33.61,318.87 33.61,438.47 50.1,438.47 50.1,449.82 "/>
  <path id="1" class="fil4" d="M115.55 389.32l13.37 1.87c-1.47,9.2 -5.21,16.38 -11.25,21.59 -6.04,5.21 -13.48,7.81 -22.26,7.81 -11.02,0 -19.88,-3.61 -26.57,-10.81 -6.72,-7.21 -10.06,-17.53 -10.06,-30.95 0,-8.71 1.45,-16.31 4.33,-22.84 2.88,-6.51 7.26,-11.41 13.17,-14.65 5.88,-3.26 12.28,-4.89 19.23,-4.89 8.74,0 15.92,2.2 21.46,6.63 5.58,4.43 9.15,10.73 10.71,18.87l-13.22 2.02c-1.27,-5.41 -3.5,-9.48 -6.74,-12.23 -3.22,-2.72 -7.1,-4.1 -11.67,-4.1 -6.89,0 -12.49,2.47 -16.82,7.39 -4.3,4.95 -6.45,12.73 -6.45,23.41 0,10.83 2.07,18.69 6.22,23.59 4.17,4.89 9.59,7.36 16.25,7.36 5.39,0 9.88,-1.64 13.45,-4.93 3.61,-3.26 5.89,-8.32 6.85,-15.14z"/>
  <path id="2" class="fil4" d="M195.64 392.75l14.16 1.86c-2.21,8.22 -6.33,14.62 -12.34,19.16 -6.02,4.53 -13.69,6.82 -23.05,6.82 -11.76,0 -21.1,-3.63 -27.99,-10.89 -6.9,-7.23 -10.34,-17.42 -10.34,-30.51 0,-13.53 3.47,-24.06 10.44,-31.52 6.98,-7.49 16.02,-11.22 27.14,-11.22 10.76,0 19.55,3.65 26.36,10.99 6.82,7.33 10.24,17.65 10.24,30.95 0,0.8 -0.02,2.02 -0.07,3.62l-60.12 0c0.52,8.84 3.01,15.63 7.52,20.33 4.49,4.69 10.11,7.05 16.82,7.05 5.01,0 9.28,-1.32 12.81,-3.97 3.55,-2.64 6.35,-6.87 8.42,-12.67zm-44.79 -21.93l44.95 0c-0.6,-6.79 -2.33,-11.88 -5.16,-15.27 -4.33,-5.26 -9.98,-7.91 -16.9,-7.91 -6.27,0 -11.53,2.1 -15.81,6.3 -4.25,4.2 -6.61,9.83 -7.08,16.88z"/>
  <path id="3" class="fil4" d="M227.09 418.87l0 -80.71 12.28 0 0 11.45c5.91,-8.78 14.47,-13.16 25.64,-13.16 4.87,0 9.33,0.88 13.4,2.61 4.07,1.74 7.13,4.05 9.15,6.87 2.02,2.83 3.45,6.2 4.25,10.09 0.49,2.54 0.75,6.97 0.75,13.29l0 49.56 -13.68 0 0 -49.04c0,-5.57 -0.52,-9.74 -1.59,-12.49 -1.06,-2.75 -2.95,-4.95 -5.65,-6.61 -2.69,-1.64 -5.88,-2.46 -9.51,-2.46 -5.81,0 -10.81,1.84 -15.03,5.54 -4.23,3.68 -6.33,10.71 -6.33,21.02l0 44.04 -13.68 0z"/>
  <path id="4" class="fil4" d="M308.14 394.77l13.53 -2.18c0.75,5.42 2.88,9.57 6.35,12.47 3.48,2.88 8.35,4.33 14.57,4.33 6.3,0 10.96,-1.27 14.02,-3.84 3.04,-2.54 4.57,-5.55 4.57,-8.99 0,-3.09 -1.38,-5.53 -4.1,-7.29 -1.92,-1.22 -6.58,-2.75 -14,-4.64 -10,-2.51 -16.92,-4.69 -20.81,-6.53 -3.86,-1.87 -6.79,-4.41 -8.79,-7.67 -2,-3.24 -3.01,-6.85 -3.01,-10.79 0,-3.6 0.83,-6.92 2.47,-9.98 1.66,-3.05 3.88,-5.59 6.71,-7.62 2.13,-1.55 5.03,-2.87 8.68,-3.96 3.68,-1.09 7.6,-1.63 11.8,-1.63 6.32,0 11.87,0.9 16.64,2.74 4.79,1.82 8.32,4.31 10.6,7.42 2.26,3.13 3.84,7.31 4.69,12.54l-13.37 1.87c-0.6,-4.2 -2.36,-7.49 -5.26,-9.85 -2.91,-2.36 -7,-3.53 -12.32,-3.53 -6.24,0 -10.73,1.04 -13.4,3.11 -2.67,2.08 -4.02,4.51 -4.02,7.29 0,1.76 0.55,3.37 1.66,4.79 1.12,1.45 2.85,2.67 5.24,3.63 1.37,0.52 5.36,1.69 12.05,3.5 9.64,2.57 16.38,4.69 20.22,6.33 3.84,1.63 6.84,4.04 9.02,7.15 2.2,3.14 3.29,7.02 3.29,11.69 0,4.54 -1.32,8.81 -3.99,12.83 -2.67,4.02 -6.51,7.13 -11.51,9.33 -5.03,2.21 -10.7,3.3 -17.03,3.3 -10.47,0 -18.48,-2.18 -23.97,-6.51 -5.5,-4.36 -9,-10.78 -10.53,-19.31z"/>
  <path id="5" class="fil4" d="M386.22 378.52c0,-14.91 4.14,-25.95 12.46,-33.13 6.92,-5.96 15.4,-8.94 25.38,-8.94 11.07,0 20.14,3.62 27.19,10.88 7.03,7.23 10.55,17.27 10.55,30.04 0,10.37 -1.55,18.51 -4.66,24.45 -3.12,5.93 -7.65,10.55 -13.61,13.84 -5.94,3.29 -12.45,4.93 -19.47,4.93 -11.3,0 -20.43,-3.61 -27.4,-10.84 -6.97,-7.23 -10.44,-17.65 -10.44,-31.23zm13.99 0.02c0,10.32 2.26,18.04 6.77,23.15 4.53,5.13 10.21,7.7 17.08,7.7 6.79,0 12.44,-2.57 16.98,-7.73 4.51,-5.16 6.76,-13.01 6.76,-23.56 0,-9.95 -2.28,-17.5 -6.81,-22.6 -4.54,-5.14 -10.19,-7.7 -16.93,-7.7 -6.87,0 -12.55,2.54 -17.08,7.65 -4.51,5.1 -6.77,12.8 -6.77,23.09z"/>
  <path id="6" class="fil4" d="M477.69 418.87l0 -80.71 12.29 0 0 12.36c3.13,-5.73 6.04,-9.51 8.71,-11.33 2.67,-1.84 5.6,-2.74 8.78,-2.74 4.62,0 9.31,1.45 14.08,4.32l-4.87 12.63c-3.32,-1.87 -6.64,-2.8 -9.96,-2.8 -2.98,0 -5.65,0.91 -8.01,2.69 -2.36,1.79 -4.04,4.28 -5.05,7.47 -1.53,4.85 -2.28,10.16 -2.28,15.94l0 42.17 -13.69 0z"/>
  <path id="7" class="fil4" d="M584.69 392.75l14.16 1.86c-2.21,8.22 -6.33,14.62 -12.34,19.16 -6.02,4.53 -13.69,6.82 -23.05,6.82 -11.76,0 -21.1,-3.63 -27.99,-10.89 -6.9,-7.23 -10.34,-17.42 -10.34,-30.51 0,-13.53 3.47,-24.06 10.44,-31.52 6.98,-7.49 16.02,-11.22 27.14,-11.22 10.76,0 19.55,3.65 26.36,10.99 6.82,7.33 10.24,17.65 10.24,30.95 0,0.8 -0.02,2.02 -0.08,3.62l-60.11 0c0.52,8.84 3.01,15.63 7.52,20.33 4.49,4.69 10.11,7.05 16.82,7.05 5.01,0 9.28,-1.32 12.81,-3.97 3.55,-2.64 6.35,-6.87 8.42,-12.67zm-44.79 -21.93l44.95 0c-0.6,-6.79 -2.33,-11.88 -5.16,-15.27 -4.33,-5.26 -9.98,-7.91 -16.9,-7.91 -6.27,0 -11.53,2.1 -15.81,6.3 -4.25,4.2 -6.61,9.83 -7.08,16.88z"/>
  <path id="8" class="fil4" d="M668.24 418.87l0 -10.23c-5.11,7.95 -12.63,11.95 -22.55,11.95 -6.43,0 -12.34,-1.77 -17.71,-5.32 -5.39,-3.52 -9.56,-8.47 -12.54,-14.8 -2.96,-6.35 -4.44,-13.63 -4.44,-21.88 0,-8.03 1.35,-15.32 4.02,-21.87 2.7,-6.54 6.71,-11.57 12.08,-15.04 5.34,-3.5 11.35,-5.23 17.96,-5.23 4.88,0 9.21,1.03 12.99,3.08 3.78,2.05 6.87,4.74 9.25,8.04l0 -40.05 13.69 0 0 111.35 -12.75 0zm-43.24 -40.25c0,10.32 2.18,18.01 6.56,23.12 4.35,5.11 9.51,7.65 15.45,7.65 5.99,0 11.07,-2.44 15.26,-7.31 4.18,-4.88 6.28,-12.32 6.28,-22.32 0,-10.99 -2.13,-19.08 -6.4,-24.24 -4.26,-5.16 -9.52,-7.72 -15.76,-7.72 -6.1,0 -11.18,2.46 -15.27,7.41 -4.07,4.95 -6.12,12.76 -6.12,23.41z"/>
  <polygon id="9" class="fil4" points="725.5,449.82 695.32,449.82 695.32,438.47 711.81,438.47 711.81,318.87 695.32,318.87 695.32,307.52 725.5,307.52 "/>
 </g>
</svg>
